<svg xmlns="http://www.w3.org/2000/svg" width="222.817" height="28.116" viewBox="0 0 222.817 28.116"><defs><style>.a{fill:#fff;}.b{fill:#38f561;}.c{fill:#aeb5b2;}</style></defs><path class="a" d="M14.452-61.832q3.951.824,3.951,4.048a3.979,3.979,0,0,1-1.915,3.466,9.145,9.145,0,0,1-5.163,1.285H3.4l1.745-1.454V-68.546L3.4-70h7.829A7.985,7.985,0,0,1,15.8-68.849a3.61,3.61,0,0,1,1.685,3.139,3.684,3.684,0,0,1-.8,2.363A4.835,4.835,0,0,1,14.452-61.832ZM10.841-68.74H8.248v6.375h2.593a3.483,3.483,0,0,0,2.606-.885,3.115,3.115,0,0,0,.86-2.266,3.238,3.238,0,0,0-.848-2.339A3.476,3.476,0,0,0,10.841-68.74Zm.048,14.446a4.773,4.773,0,0,0,3.175-.9,3.061,3.061,0,0,0,1.042-2.448q0-3.466-4.217-3.466H8.248v6.811ZM28.122-61.88a4.444,4.444,0,0,0-2.06-.218,2.546,2.546,0,0,0-1.5.727v6.762l2.666,1.575H19.954L21.7-54.488v-7.441l-1.551-1.309,4.411-1.939L24.05-62.1l.121.048a5.213,5.213,0,0,1,2-2.387,3.783,3.783,0,0,1,2.993-.448Zm14.106,6.738.121.121a2.8,2.8,0,0,1-2.715,2.23,2.3,2.3,0,0,1-2.424-1.769H37.09a4.15,4.15,0,0,1-3.514,1.769,3.589,3.589,0,0,1-2.412-.776,2.655,2.655,0,0,1-.909-2.133,3.087,3.087,0,0,1,1.721-2.884h4.993V-60.4a2.811,2.811,0,0,0-.594-2.012,2.5,2.5,0,0,0-1.854-.606,6.483,6.483,0,0,0-3.611,1.212l-.121-.121A6.064,6.064,0,0,1,33.031-64.3a5.869,5.869,0,0,1,3.042-.824,3.738,3.738,0,0,1,2.763.97A3.738,3.738,0,0,1,39.8-61.4v5.429q0,1.333,1.091,1.333A2.3,2.3,0,0,0,42.229-55.142Zm-7.586.727a3.5,3.5,0,0,0,2.327-1.139v-2.133H33.576a2.325,2.325,0,0,0-.557,1.6,1.607,1.607,0,0,0,.461,1.26A1.679,1.679,0,0,0,34.642-54.415Zm15.609-.776a6.044,6.044,0,0,0,3.684-1.333l.121.121a4.671,4.671,0,0,1-4.8,3.611,5.48,5.48,0,0,1-4.193-1.769,6.353,6.353,0,0,1-1.648-4.508,5.772,5.772,0,0,1,1.745-4.423,6.006,6.006,0,0,1,4.266-1.636,5.036,5.036,0,0,1,3.442,1.188,4.487,4.487,0,0,1,1.382,3.514H46.179v.412a5.43,5.43,0,0,0,1.054,3.527A3.666,3.666,0,0,0,50.251-55.191Zm-1.188-8.968a2.428,2.428,0,0,0-1.781.739,3.832,3.832,0,0,0-.982,2.1h4.872a3.414,3.414,0,0,0-.57-2.048A1.8,1.8,0,0,0,49.064-64.159ZM75.41-54.488l1.745,1.454H70.8l1.745-1.454v-6.229a2.933,2.933,0,0,0-.461-1.9,1.879,1.879,0,0,0-1.478-.521,4.661,4.661,0,0,0-2.763,1.066v7.586l1.745,1.454h-6.35l1.745-1.454v-6.229a2.933,2.933,0,0,0-.461-1.9,1.879,1.879,0,0,0-1.478-.521,4.661,4.661,0,0,0-2.763,1.066v7.586l1.745,1.454h-6.35l1.745-1.454v-7.441l-1.551-1.309,4.411-1.939-.364,2.133.121.121a6.066,6.066,0,0,1,4.581-2.206,2.8,2.8,0,0,1,3.054,2.109,6.108,6.108,0,0,1,4.508-2.109q3.224,0,3.224,3.466Zm15.318-.654.121.121a2.8,2.8,0,0,1-2.715,2.23,2.3,2.3,0,0,1-2.424-1.769H85.59a4.15,4.15,0,0,1-3.514,1.769,3.589,3.589,0,0,1-2.412-.776,2.655,2.655,0,0,1-.909-2.133,3.087,3.087,0,0,1,1.721-2.884h4.993V-60.4a2.811,2.811,0,0,0-.594-2.012,2.5,2.5,0,0,0-1.854-.606,6.483,6.483,0,0,0-3.611,1.212l-.121-.121A6.064,6.064,0,0,1,81.53-64.3a5.869,5.869,0,0,1,3.042-.824,3.738,3.738,0,0,1,2.763.97A3.738,3.738,0,0,1,88.3-61.4v5.429q0,1.333,1.091,1.333A2.3,2.3,0,0,0,90.728-55.142Zm-7.586.727a3.5,3.5,0,0,0,2.327-1.139v-2.133H82.075a2.325,2.325,0,0,0-.557,1.6,1.607,1.607,0,0,0,.461,1.26A1.68,1.68,0,0,0,83.142-54.415Zm16.53-7.465a4.444,4.444,0,0,0-2.06-.218,2.546,2.546,0,0,0-1.5.727v6.762l2.666,1.575H91.5l1.745-1.454v-7.441L91.7-63.238l4.411-1.939L95.6-62.1l.121.048a5.213,5.213,0,0,1,2-2.387,3.783,3.783,0,0,1,2.993-.448Z" transform="translate(-3.4 70)"/><rect class="b" width="97" height="5" transform="translate(0.187 23.116)"/><path class="c" d="M5.2-9.864a3.584,3.584,0,0,1,2.629.99A3.484,3.484,0,0,1,8.839-6.266,3.447,3.447,0,0,1,7.8-3.659a3.77,3.77,0,0,1-2.709.99H3.013V.645H.813V-9.864ZM3.013-4.387H4.608a2.078,2.078,0,0,0,1.471-.488A1.8,1.8,0,0,0,6.6-6.259a1.8,1.8,0,0,0-.524-1.384,2.07,2.07,0,0,0-1.464-.481h-1.6ZM12.539-.811a1.9,1.9,0,0,0,1.253-.415A1.324,1.324,0,0,0,14.309-2.3v-.59l-1.682.117q-1.362.087-1.362,1a.819.819,0,0,0,.35.7A1.484,1.484,0,0,0,12.539-.811ZM11.847.74A2.824,2.824,0,0,1,9.917.077a2.21,2.21,0,0,1-.772-1.741,2.021,2.021,0,0,1,.816-1.7,4.305,4.305,0,0,1,2.345-.7l2-.124v-.532a1.1,1.1,0,0,0-.371-.889A1.582,1.582,0,0,0,12.9-5.917a1.6,1.6,0,0,0-.954.277,1.084,1.084,0,0,0-.459.714H9.546a2.348,2.348,0,0,1,.99-1.864,3.96,3.96,0,0,1,2.454-.721,3.912,3.912,0,0,1,2.476.728,2.328,2.328,0,0,1,.932,1.93v5.5H14.345V-.593H14.3A2.315,2.315,0,0,1,13.3.39,3.059,3.059,0,0,1,11.847.74Zm6.97,2.833a6.381,6.381,0,0,1-.808-.029V1.9a3.185,3.185,0,0,0,.481.022q1.18,0,1.42-.918L19.982.7l-2.811-8.07H19.5l1.733,6.293h.044l1.741-6.293h2.243L22.488.805a4.29,4.29,0,0,1-1.34,2.148A3.814,3.814,0,0,1,18.817,3.573ZM26.064-7.373h2.054v1.457h.044a2.257,2.257,0,0,1,.874-1.151,2.426,2.426,0,0,1,1.413-.422,2.4,2.4,0,0,1,1.449.422,2.112,2.112,0,0,1,.787,1.216h.044a2.353,2.353,0,0,1,.947-1.194,2.729,2.729,0,0,1,1.544-.444,2.566,2.566,0,0,1,1.908.736A2.684,2.684,0,0,1,37.848-4.8V.645H35.721V-4.271q0-1.457-1.34-1.457a1.307,1.307,0,0,0-1.012.422,1.55,1.55,0,0,0-.386,1.1V.645H30.929v-5a1.418,1.418,0,0,0-.35-1.012,1.279,1.279,0,0,0-.969-.364,1.331,1.331,0,0,0-1.027.437,1.586,1.586,0,0,0-.393,1.114V.645H26.064ZM42.829-5.924a1.664,1.664,0,0,0-1.216.481,1.909,1.909,0,0,0-.539,1.253h3.459a1.819,1.819,0,0,0-.5-1.26A1.622,1.622,0,0,0,42.829-5.924ZM46.522-1.8A2.709,2.709,0,0,1,45.349.07a4.122,4.122,0,0,1-2.462.714A3.81,3.81,0,0,1,40-.316a4.19,4.19,0,0,1-1.049-3.015A4.314,4.314,0,0,1,40-6.376a3.641,3.641,0,0,1,2.811-1.136A3.609,3.609,0,0,1,45.56-6.434a4.038,4.038,0,0,1,1.027,2.906v.655H41.052v.131a1.946,1.946,0,0,0,.517,1.406A1.8,1.8,0,0,0,42.924-.8a1.945,1.945,0,0,0,1.041-.269,1.3,1.3,0,0,0,.6-.728Zm1.209-5.571h2.054v1.435h.044A2.585,2.585,0,0,1,52.406-7.49a2.776,2.776,0,0,1,2.1.794,3.056,3.056,0,0,1,.757,2.2V.645H53.135v-4.7a1.719,1.719,0,0,0-.408-1.231,1.53,1.53,0,0,0-1.165-.437,1.611,1.611,0,0,0-1.231.5,1.8,1.8,0,0,0-.473,1.3V.645H47.731ZM59.362-9.158v1.784h1.486v1.61H59.362v3.9q0,.918.954.918a3.3,3.3,0,0,0,.532-.036V.587A5.294,5.294,0,0,1,59.82.674a3.064,3.064,0,0,1-1.988-.51,2.1,2.1,0,0,1-.6-1.682V-5.764H56.15v-1.61h1.085V-9.158ZM.813,17.692V7.182h2.2V17.692ZM4.608,9.673H6.662v1.435h.044A2.585,2.585,0,0,1,9.284,9.556a2.776,2.776,0,0,1,2.1.794,3.056,3.056,0,0,1,.757,2.2v5.142H10.012v-4.7A1.719,1.719,0,0,0,9.6,11.763a1.53,1.53,0,0,0-1.165-.437,1.611,1.611,0,0,0-1.231.5,1.8,1.8,0,0,0-.473,1.3v4.574H4.608Zm9.5,1.61H13.027V9.673h1.085V8.959a2.083,2.083,0,0,1,.6-1.668,3.1,3.1,0,0,1,2-.51,6.651,6.651,0,0,1,.983.073V8.333a3.136,3.136,0,0,0-.583-.051,1.025,1.025,0,0,0-.692.189.8.8,0,0,0-.218.612v.59h1.5v1.61H16.239v6.409H14.112Zm4.778-1.61h2.054v1.435h.044A1.834,1.834,0,0,1,22.9,9.578a1.911,1.911,0,0,1,.6.08v1.886a1.851,1.851,0,0,0-.765-.131,1.658,1.658,0,0,0-1.26.473,1.833,1.833,0,0,0-.452,1.318v4.486H18.89Zm8.485,6.562a1.9,1.9,0,0,0,1.253-.415,1.324,1.324,0,0,0,.517-1.071v-.59l-1.682.117q-1.362.087-1.362,1a.819.819,0,0,0,.35.7A1.484,1.484,0,0,0,27.375,16.235Zm-.692,1.551a2.824,2.824,0,0,1-1.93-.663,2.21,2.21,0,0,1-.772-1.741,2.021,2.021,0,0,1,.816-1.7,4.305,4.305,0,0,1,2.345-.7l2-.124v-.532a1.1,1.1,0,0,0-.371-.889,1.843,1.843,0,0,0-1.988-.029,1.084,1.084,0,0,0-.459.714H24.381a2.348,2.348,0,0,1,.99-1.864,3.96,3.96,0,0,1,2.454-.721,3.912,3.912,0,0,1,2.476.728,2.328,2.328,0,0,1,.932,1.93v5.5H29.181V16.453h-.044a2.315,2.315,0,0,1-1.005.983A3.059,3.059,0,0,1,26.683,17.786Zm5.841-5.754a2.154,2.154,0,0,1,.918-1.813,3.984,3.984,0,0,1,2.44-.685,3.829,3.829,0,0,1,2.4.7,2.257,2.257,0,0,1,.932,1.843H37.243a1.01,1.01,0,0,0-.408-.757,1.606,1.606,0,0,0-.983-.277,1.642,1.642,0,0,0-.925.233.73.73,0,0,0-.35.626q0,.59,1.071.838l1.508.328a3.646,3.646,0,0,1,1.726.779,1.845,1.845,0,0,1,.524,1.4,2.221,2.221,0,0,1-.976,1.879,4.26,4.26,0,0,1-2.556.706,4.167,4.167,0,0,1-2.527-.706,2.4,2.4,0,0,1-1.02-1.857H34.4q.16,1.056,1.529,1.056a1.839,1.839,0,0,0,1-.233.7.7,0,0,0,.364-.619.6.6,0,0,0-.226-.5,2.115,2.115,0,0,0-.779-.313l-1.478-.335Q32.524,13.81,32.524,12.033ZM43.208,7.889V9.673h1.486v1.61H43.208v3.9q0,.918.954.918a3.3,3.3,0,0,0,.532-.036v1.573a5.3,5.3,0,0,1-1.027.087,3.064,3.064,0,0,1-1.988-.51,2.1,2.1,0,0,1-.6-1.682V11.282H40V9.673h1.085V7.889Zm2.7,1.784h2.054v1.435h.044a1.834,1.834,0,0,1,1.908-1.529,1.911,1.911,0,0,1,.6.08v1.886a1.851,1.851,0,0,0-.765-.131,1.658,1.658,0,0,0-1.26.473,1.833,1.833,0,0,0-.452,1.318v4.486H45.91Zm13.022,8.019H56.878V16.242h-.044a2.456,2.456,0,0,1-2.52,1.566,2.816,2.816,0,0,1-2.1-.8,2.962,2.962,0,0,1-.808-2.192V9.673h2.127v4.7a1.691,1.691,0,0,0,.43,1.238,1.545,1.545,0,0,0,1.165.43,1.594,1.594,0,0,0,1.216-.5,1.825,1.825,0,0,0,.466-1.3V9.673h2.127ZM65.64,12.63a1.609,1.609,0,0,0-.51-1.02,1.585,1.585,0,0,0-1.114-.4,1.532,1.532,0,0,0-1.3.655,3.034,3.034,0,0,0-.481,1.813,3.028,3.028,0,0,0,.481,1.821,1.545,1.545,0,0,0,1.311.648,1.472,1.472,0,0,0,1.624-1.369h1.981A3.042,3.042,0,0,1,66.557,17,3.827,3.827,0,0,1,64,17.83a3.769,3.769,0,0,1-2.862-1.107,4.244,4.244,0,0,1-1.063-3.044,4.213,4.213,0,0,1,1.063-3.022,4.2,4.2,0,0,1,5.433-.24A3.065,3.065,0,0,1,67.62,12.63Zm5.746-4.741V9.673h1.486v1.61H71.386v3.9q0,.918.954.918a3.3,3.3,0,0,0,.532-.036v1.573a5.3,5.3,0,0,1-1.027.087,3.064,3.064,0,0,1-1.988-.51,2.1,2.1,0,0,1-.6-1.682V11.282H68.174V9.673h1.085V7.889Zm10.2,9.8H79.528V16.242h-.044a2.456,2.456,0,0,1-2.52,1.566,2.816,2.816,0,0,1-2.1-.8,2.962,2.962,0,0,1-.808-2.192V9.673h2.127v4.7a1.691,1.691,0,0,0,.43,1.238,1.545,1.545,0,0,0,1.165.43,1.594,1.594,0,0,0,1.216-.5,1.825,1.825,0,0,0,.466-1.3V9.673h2.127Zm1.442-8.019h2.054v1.435h.044A1.834,1.834,0,0,1,87.03,9.578a1.911,1.911,0,0,1,.6.08v1.886a1.851,1.851,0,0,0-.765-.131,1.658,1.658,0,0,0-1.26.473,1.833,1.833,0,0,0-.452,1.318v4.486H83.024Zm8.849,1.449a1.664,1.664,0,0,0-1.216.481,1.909,1.909,0,0,0-.539,1.253h3.459a1.819,1.819,0,0,0-.5-1.26A1.622,1.622,0,0,0,91.873,11.122Zm3.692,4.122a2.709,2.709,0,0,1-1.173,1.872,4.122,4.122,0,0,1-2.462.714,3.81,3.81,0,0,1-2.884-1.1A4.19,4.19,0,0,1,88,13.715a4.314,4.314,0,0,1,1.041-3.044,4.05,4.05,0,0,1,5.564-.058,4.038,4.038,0,0,1,1.027,2.906v.655H90.1V14.3a1.946,1.946,0,0,0,.517,1.406,1.8,1.8,0,0,0,1.355.532,1.945,1.945,0,0,0,1.041-.269,1.3,1.3,0,0,0,.6-.728Z" transform="translate(127.187 10.116)"/></svg>