<svg xmlns="http://www.w3.org/2000/svg" width="119" height="119" viewBox="0 0 119 119"><defs><style>.a{fill:#fff;}.b{fill:#62b3e5;}</style></defs><g transform="translate(-252 -2955)"><rect class="a" width="119" height="119" transform="translate(252 2955)"/><g transform="translate(267.355 2999.883)"><path class="b" d="M53.015,100.724c.125,2.982,1.9,4.937,5.037,4.937a4.448,4.448,0,0,0,4.21-2.381h6.917c-1.328,5.037-6.162,7.217-11.2,7.217-7.342,0-12.329-4.285-12.329-11.552,0-6.666,5.513-11.427,12.154-11.427,8.069,0,12.1,5.864,11.753,13.232H53.015Zm9.147-3.96a4.466,4.466,0,0,0-4.386-4.435c-2.606,0-4.335,1.8-4.786,4.435Zm34.056-9.272c7.042,0,12,4.987,12,11.527s-4.937,11.477-12,11.477S84.287,105.56,84.287,99.02,89.2,87.492,96.218,87.492Zm0,17.542c3.458,0,4.536-3.283,4.536-6.04,0-2.732-1.1-6.065-4.536-6.065-3.458,0-4.486,3.283-4.486,6.065C91.732,101.8,92.76,105.034,96.218,105.034ZM34.6,93.081H30.06V102.8c0,1.779,1.027,2.155,2.656,2.155.6,0,1.253-.075,1.9-.075v5.388c-1.328.05-2.681.226-4.034.226-6.29,0-7.894-1.8-7.894-7.919v-9.5H18.959V88.32H22.7V81.027H30.06V88.32H34.6Zm9.222-6.716H36.476v-5.31h7.342Zm-7.367,2h7.368V110.5H36.476ZM84.29,93.081H79.754V102.8c0,1.779,1.027,2.155,2.631,2.155.6,0,1.253-.075,1.9-.075v5.388c-1.328.05-2.681.226-4.034.226-6.29,0-7.894-1.8-7.894-7.919v-9.5H68.625V88.32h3.684V81.027H79.7V88.32h4.536Z" transform="translate(-18.959 -81.027)"/></g></g></svg>