<svg xmlns="http://www.w3.org/2000/svg" width="119" height="119" viewBox="0 0 119 119"><defs><style>.a,.e{fill:#fff;}.b,.c,.d,.e{fill-rule:evenodd;}.c{fill:#e60004;}.d{fill:#c1c3c6;}</style></defs><g transform="translate(-972 -2786)"><rect class="a" width="119" height="119" transform="translate(972 2786)"/><g transform="translate(979.273 2831.948)"><g transform="translate(0 0)"><path class="b" d="M2.335,17.487h17.3l.041,1.482H2.366Zm23.49.223a5.712,5.712,0,0,1,.1-2.006,5.537,5.537,0,0,0,.841-1.285,7.615,7.615,0,0,0,.494-3.67c0-.665-.052-7.906.026-8.36l1.448.011c.074.476.021,8.4.022,9.116a6.861,6.861,0,0,1-1.727,5.169,4.365,4.365,0,0,1-1.2,1.025ZM21.99,24.768c-.036-2.975,0-5.972,0-8.948a7.116,7.116,0,0,1,1.727-4.983,5.543,5.543,0,0,1,1.2-1.023,8.183,8.183,0,0,1-.057,1.991,3.2,3.2,0,0,1-.249.279c-1.129,1.377-1.135,2.783-1.135,4.5v8.2l-1.482-.018ZM31.1,8.57h70.845V10.04H31.09L31.1,8.569Zm-6.205-1.6c-.1.222-.145.167-.5.349a9.171,9.171,0,0,0-4.759,7.789l-19.639.011v6.214l19.623.011c0,.914-.035,5.274.021,5.825h6.194l.022-6.723a9.063,9.063,0,0,0,3.622-3.027,8.948,8.948,0,0,0,1.473-3.476c.089-.476.1-1.127.2-1.518h73.221l-.029-6.237H31.114V.045c-.162-.081-5.565-.028-6.221-.028V6.974Z" transform="translate(0.011 0)"/><path class="c" d="M2344.818,647.669h70.857V646.2H2344.83Z" transform="translate(-2313.718 -637.63)"/><path class="b" d="M3302.114,1238.354a22.843,22.843,0,0,1,.768,2.183c.883,2.489.368,2.172,1.689,2.158l1.527-4.337c0,.8-.056,6.073.036,6.408h1.607c.148-.543.037-4.508.037-5.4,0-.927-.048-4.838.011-5.412h-1.68a16.744,16.744,0,0,0-1.032,2.905c-.325,1-.681,2.017-.966,2.986a6.509,6.509,0,0,1-.522-1.5l-1.43-4.392-1.742.021.015,10.783h1.664Z" transform="translate(-3256.647 -1217.595)"/><path class="b" d="M4455.765,1236.6v2.613c0,.425-.072.752-.483.8-.336.042-.838.069-1.052-.159a6.56,6.56,0,0,1-.161-2.415C4454.116,1236.773,4454.913,1236.735,4455.765,1236.6Zm-1.714-2.709c.131-1.07-.357-1.662,1.01-1.641.917.014.709.732.708,1.952,0,.476-.152.673-.575.78-.346.089-.746.138-1.091.21-2.067.435-1.7,2.143-1.7,3.546,0,1.982.167,2.8,2.479,2.8h2.566c.1-.449.062-9.083-.039-9.456-.367-1.368-1.812-1.505-3.4-1.342a1.762,1.762,0,0,0-1.421.987,5.077,5.077,0,0,0-.172,2.157Z" transform="translate(-4393.325 -1214.364)"/><path class="b" d="M2816.916,1242.662c-.19.747-1.471.536-1.633.2-.136-.285-.071-4.056-.071-4.677a20.954,20.954,0,0,1,.026-2.414c.134-.587,1.422-.577,1.629-.094C2817,1235.993,2816.979,1242.419,2816.916,1242.662Zm-3.385-6.959v7.077a1.817,1.817,0,0,0,1.828,1.858h1.416a1.793,1.793,0,0,0,1.827-1.8v-7.193a1.816,1.816,0,0,0-.729-1.452,2.633,2.633,0,0,0-1.8-.362,2.6,2.6,0,0,0-1.8.369,1.811,1.811,0,0,0-.738,1.5Z" transform="translate(-2776.214 -1217.464)"/><path class="b" d="M7003.2,1233.855c-.076.622-.018,5.565-.018,6.65a9.65,9.65,0,0,0,.195,3.179c.459.855,1.085.979,2.356.979,2.928,0,2.488-1.54,2.488-4.217,0-1.066.058-5.972-.018-6.594l-1.644.023c-.069.47-.018,6.594-.018,7.63,0,1.3.163,1.658-.871,1.655-1.091,0-.826-.731-.826-1.714,0-1.14.046-6.973-.015-7.593Z" transform="translate(-6910.29 -1217.49)"/><path class="b" d="M4942.338,1236.126c0-.445.217-.634.649-.634,1.447,0,.916.394,1.064,1.622h1.649l.014-1.224a1.827,1.827,0,0,0-1.9-1.932h-1.239a1.836,1.836,0,0,0-1.917,1.932c0,3.041-.272,3.579,2.605,4.149,1.007.2.771.577.771,2.515,0,.442-.187.707-.634.707-1.431,0-.954-.394-1.08-1.637h-1.646l-.017,1.224a1.8,1.8,0,0,0,1.857,1.917h1.357a1.8,1.8,0,0,0,1.842-1.917c0-3.312.388-4.017-2.58-4.572C4942.139,1238.092,4942.338,1237.856,4942.338,1236.126Z" transform="translate(-4875.119 -1217.595)"/><path class="b" d="M5423.382,1241.551a3.417,3.417,0,0,0,.47,2.59c.561.609,1.449.549,2.488.552,2.514.007,2.077-2.177,2.08-3.981,0-1.159-.222-1.629-.971-2.053-.59-.336-2.031-.424-2.278-.728-.208-.258-.128-1.013-.128-1.405,0-.46-.058-.963.388-1.081.431-.115,1.082-.048,1.231.23a5.546,5.546,0,0,1,.095,1.369h1.646a3.419,3.419,0,0,0-.466-2.584c-.54-.6-1.411-.572-2.427-.572-2.5,0-2.191,2.031-2.151,3.938.063,2.68,3.222,1.538,3.374,2.722.047.381,0,1.105,0,1.523a2.781,2.781,0,0,1-.033.723.589.589,0,0,1-.333.369c-.4.128-1.07.053-1.245-.238s-.061-.986-.1-1.369Z" transform="translate(-5351.385 -1217.516)"/><path class="b" d="M7484.49,1241.2c-.287,2.963.8,3.135,2.935,3.141a1.874,1.874,0,0,0,1.951-1.088,11.036,11.036,0,0,0,.144-2.893c0-1.131-.215-1.631-.976-2.062-.59-.334-2-.4-2.276-.731-.221-.268-.124-1.005-.124-1.394,0-.5-.062-.959.38-1.077.405-.109,1.045-.08,1.232.216.206.324.076.951.111,1.377l1.647-.022c.055-.95.1-1.974-.466-2.528-.732-.714-1.167-.6-2.389-.606a1.962,1.962,0,0,0-2.01,1.039,9.15,9.15,0,0,0-.171,2.84,1.8,1.8,0,0,0,1.2,1.866c.944.386,2.021.194,2.153.854a11.682,11.682,0,0,1,.023,1.525c0,1.044-.047,1.244-1.139,1.182-.819-.049-.516-1.021-.59-1.638h-1.633Z" transform="translate(-7385.193 -1217.167)"/><path class="b" d="M6160.657,1234.4c.747-.073,1.651-.181,1.651.634,0,2.69.306,2.727-1.65,2.628Zm0,4.814c1.417-.209,2.031.37,2.952-.739.561-.676.378-2.23.378-3.264,0-.984-.18-1.991-1.354-2.278a30.288,30.288,0,0,0-3.657-.051c0,.793-.07,10.31.036,10.836a6.323,6.323,0,0,1,1.607-.043c.1-.484.038-3.707.038-4.466Z" transform="translate(-6077.245 -1216.5)"/><path class="b" d="M3987.973,1234.107c.809-.079,1.651-.187,1.651.693,0,2.613.3,2.667-1.65,2.569Zm0,4.814c1.313-.194,2.1.286,2.927-.708.61-.732.39-2.231.39-3.3,0-.983-.15-2.013-1.4-2.287a30.132,30.132,0,0,0-3.6-.042v10.793h1.68Z" transform="translate(-3933.421 -1216.21)"/><path class="b" d="M2355.508,1238.76c-.068.54.139,1.284-.3,1.529-.14.078-1.165.266-1.365-.249-.107-.276-.1-6.869,0-7.13.158-.39,1.073-.452,1.4-.225.354.249.249,1.013.249,1.544l1.667-.011c0-1.244.115-2.083-.665-2.728a4.416,4.416,0,0,0-2.924-.387,1.846,1.846,0,0,0-1.458,1.949v6.785c0,2.286,1.874,2.044,3.11,2.035a1.815,1.815,0,0,0,1.913-1.542,10.226,10.226,0,0,0,0-1.585l-1.63.015Z" transform="translate(-2320.92 -1214.695)"/><path class="d" d="M176.816,1319.969h17.306l-.041-1.482h-17.3Z" transform="translate(-174.438 -1301.002)"/><path class="d" d="M1945,195.456a4.368,4.368,0,0,0,1.2-1.025,6.864,6.864,0,0,0,1.726-5.169c0-.716.052-8.641-.021-9.116l-1.445-.011c-.077.454-.026,7.695-.026,8.36a7.619,7.619,0,0,1-.494,3.67,5.523,5.523,0,0,1-.841,1.285,5.652,5.652,0,0,0-.1,2.006Z" transform="translate(-1919.169 -177.746)"/><path class="c" d="M1657.5,754.951l1.482.018v-8.2c0-1.721.006-3.127,1.135-4.5a3.2,3.2,0,0,0,.249-.279,8.158,8.158,0,0,0,.058-1.991,5.54,5.54,0,0,0-1.2,1.023A7.113,7.113,0,0,0,1657.5,746c0,2.977-.034,5.972,0,8.948Z" transform="translate(-1635.498 -730.181)"/><path class="b" d="M6630.838,1244.978h4.01v-1.519h-2.342l-.013-9.286-1.654.019Z" transform="translate(-6542.889 -1217.803)"/><path class="e" d="M2940.329,1353.432c.062-.243.088-6.672-.049-6.99-.207-.483-1.493-.493-1.629.094a21.278,21.278,0,0,0-.026,2.413c0,.622-.062,4.392.071,4.678C2938.861,1353.967,2940.142,1354.179,2940.329,1353.432Z" transform="translate(-2899.629 -1328.232)"/><path class="e" d="M4579.4,1676.142c-.855.141-1.648.175-1.7.846a6.561,6.561,0,0,0,.162,2.415c.215.227.716.2,1.053.158.412-.052.483-.379.482-.8Q4579.4,1677.447,4579.4,1676.142Z" transform="translate(-4516.956 -1653.911)"/><path class="e" d="M6287.347,1349.157c1.957.1,1.651.062,1.651-2.628,0-.816-.907-.707-1.651-.634Z" transform="translate(-6203.98 -1327.993)"/><path class="e" d="M4113.019,1349.009c1.946.1,1.649.046,1.649-2.569,0-.88-.846-.772-1.651-.693Z" transform="translate(-4058.466 -1327.847)"/></g></g></g></svg>