<svg xmlns="http://www.w3.org/2000/svg" width="119" height="119" viewBox="0 0 119 119"><defs><style>.a{fill:#fff;}.b{fill:#00406e;}</style></defs><g transform="translate(-252 -2786)"><rect class="a" width="119" height="119" transform="translate(252 2786)"/><g transform="translate(-152.93 2236.68)"><g transform="translate(416.93 596.373)"><path class="b" d="M0,0V6.045H6.24V24.421h7.774V6.045h6.239V0"/></g><g transform="translate(460.907 596.982)"><path class="b" d="M-4.912,0-.319,7.751,4.21,0h8.622L3.344,13.493v9.8H-4.08v-9.8L-13.5,0" transform="translate(13.499)"/></g><g transform="translate(484.099 592.542)"><path class="b" d="M-7.237-7.2c-2.03-.361-3.23-.658-3.23-1.782,0-1.186,1.4-1.515,2.664-1.515a10.84,10.84,0,0,1,4.361.856,4.791,4.791,0,0,1,1.8,1.518l1.935-1.6v4.7C-1.7-6.24-4.461-6.726-7.237-7.2M.832-19.786a.538.538,0,0,0-.541.539v5.016c-.23-.13-.472-.262-.737-.39A16.153,16.153,0,0,0-7.536-16.1c-4.227,0-8.188,1.352-9.72,4.783a7.2,7.2,0,0,0-.666,3c0,4.915,4.228,6.235,6.39,6.8.968.231,5.294.988,6.126,1.285,1.3.43,1.3,1.288,1.3,1.451,0,1.684-2.928,1.748-3.528,1.748a10.626,10.626,0,0,1-3.3-.526A5.167,5.167,0,0,1-14.193-.105l-5.693,3.628A12.148,12.148,0,0,0-13.36,7.941,19.712,19.712,0,0,0-7.9,8.634c1.186,0,5.239,0,8.194-2.3v5.195a.541.541,0,0,0,1.081,0V-19.247a.539.539,0,0,0-.541-.539" transform="translate(19.886 19.786)"/></g><g transform="translate(441.326 592.541)"><path class="b" d="M-5.516-13.013a10.623,10.623,0,0,1-3.3-.526,5.154,5.154,0,0,1-3.26-2.539l-2,1.272v-5.031A10.127,10.127,0,0,0-9.411-17.5c.964.231,5.292.988,6.124,1.285,1.3.43,1.3,1.289,1.3,1.451,0,1.684-2.93,1.748-3.529,1.748m.4-10.16c-2.031-.36-3.231-.658-3.231-1.782,0-1.186,1.4-1.514,2.663-1.514a10.849,10.849,0,0,1,4.363.856A4.791,4.791,0,0,1,.476-24.1l4.662-3.86a11.163,11.163,0,0,0-3.463-2.637,16.148,16.148,0,0,0-7.092-1.485c-3.461,0-6.74.906-8.658,3.113V-35.22a.538.538,0,0,0-.539-.539.542.542,0,0,0-.545.539V-4.445a.542.542,0,0,0,.545.536.537.537,0,0,0,.539-.536V-9.2a12.893,12.893,0,0,0,2.833,1.164,19.73,19.73,0,0,0,5.458.693c1.3,0,6.027,0,8.99-3a7.322,7.322,0,0,0,2.1-5.244c0-5.773-5.2-6.7-10.422-7.589" transform="translate(15.159 35.759)"/></g><g transform="translate(508.479 596.654)"><path class="b" d="M-.844-.71h.169A2,2,0,0,1-.23-.681l.139.095.049.151-.049.155-.138.1a2.046,2.046,0,0,1-.445.028H-.844ZM-.844,1V.166h.108A.465.465,0,0,1-.446.253a1.378,1.378,0,0,1,.284.42L.007,1H.525L.284.593C.2.448.149.366.133.345A1.009,1.009,0,0,0-.006.188L-.15.112a.653.653,0,0,0,.4-.194A.533.533,0,0,0,.4-.459.571.571,0,0,0,.323-.751.5.5,0,0,0,.131-.945a.788.788,0,0,0-.32-.082c-.047,0-.264-.006-.654-.006h-.414V1h.413ZM-1.34-1.7a1.8,1.8,0,0,0-.717.711,1.945,1.945,0,0,0-.262.968,1.926,1.926,0,0,0,.258.961,1.8,1.8,0,0,0,.713.711A1.948,1.948,0,0,0-.386,1.9a1.946,1.946,0,0,0,.961-.256A1.808,1.808,0,0,0,1.29.935a1.94,1.94,0,0,0,.255-.961,1.936,1.936,0,0,0-.261-.968A1.783,1.783,0,0,0,.568-1.7a1.978,1.978,0,0,0-.953-.247A1.983,1.983,0,0,0-1.34-1.7m1.721.332A1.451,1.451,0,0,1,.96-.8a1.557,1.557,0,0,1,.211.778,1.553,1.553,0,0,1-.207.77,1.486,1.486,0,0,1-.575.573,1.56,1.56,0,0,1-.773.205,1.564,1.564,0,0,1-.772-.205A1.481,1.481,0,0,1-1.731.747a1.559,1.559,0,0,1-.2-.77A1.557,1.557,0,0,1-1.726-.8a1.446,1.446,0,0,1,.576-.57,1.577,1.577,0,0,1,.765-.2,1.58,1.58,0,0,1,.765.2" transform="translate(2.319 1.951)"/></g></g></g></svg>