<svg xmlns="http://www.w3.org/2000/svg" width="331.248" height="41.798" viewBox="0 0 331.248 41.798"><defs><style>.a{fill:#fff;}.b{fill:#38f561;}.c{fill:#aeb5b2;}</style></defs><g transform="translate(-706.813 -1224)"><path class="a" d="M19.831-57.857Q25.7-56.632,25.7-51.84a5.915,5.915,0,0,1-2.847,5.153,13.6,13.6,0,0,1-7.675,1.91H3.4l2.594-2.162v-20.9L3.4-70H15.038a11.871,11.871,0,0,1,6.792,1.712,5.367,5.367,0,0,1,2.5,4.666,5.477,5.477,0,0,1-1.189,3.513A7.188,7.188,0,0,1,19.831-57.857ZM14.462-68.126H10.606v9.477h3.855a5.177,5.177,0,0,0,3.873-1.315,4.631,4.631,0,0,0,1.279-3.369,4.814,4.814,0,0,0-1.261-3.477A5.167,5.167,0,0,0,14.462-68.126Zm.072,21.475a7.1,7.1,0,0,0,4.72-1.333A4.55,4.55,0,0,0,20.8-51.623q0-5.153-6.27-5.153H10.606v10.125ZM40.153-57.929a6.606,6.606,0,0,0-3.063-.324,3.785,3.785,0,0,0-2.234,1.081v10.053l3.964,2.342H28.01L30.6-46.939V-58L28.3-59.947l6.558-2.883L34.1-58.253l.18.072a7.75,7.75,0,0,1,2.973-3.549A5.624,5.624,0,0,1,41.7-62.4ZM61.124-47.912l.18.18q-1.153,3.315-4.036,3.315a3.417,3.417,0,0,1-3.6-2.63h-.18a6.17,6.17,0,0,1-5.225,2.63,5.335,5.335,0,0,1-3.585-1.153,3.947,3.947,0,0,1-1.351-3.171,4.589,4.589,0,0,1,2.558-4.288H53.3v-2.7a4.179,4.179,0,0,0-.883-2.991,3.714,3.714,0,0,0-2.756-.9,9.638,9.638,0,0,0-5.369,1.8l-.18-.18a9.015,9.015,0,0,1,3.333-3.531,8.725,8.725,0,0,1,4.522-1.225,5.557,5.557,0,0,1,4.108,1.441,5.557,5.557,0,0,1,1.441,4.108v8.071q0,1.982,1.621,1.982A3.426,3.426,0,0,0,61.124-47.912ZM49.846-46.831A5.209,5.209,0,0,0,53.3-48.525V-51.7H48.26a3.457,3.457,0,0,0-.829,2.378,2.388,2.388,0,0,0,.685,1.874A2.5,2.5,0,0,0,49.846-46.831Zm23.2-1.153a8.985,8.985,0,0,0,5.477-1.982l.18.18q-1.73,5.369-7.134,5.369a8.147,8.147,0,0,1-6.234-2.63,9.444,9.444,0,0,1-2.45-6.7,8.58,8.58,0,0,1,2.594-6.576,8.928,8.928,0,0,1,6.342-2.432,7.487,7.487,0,0,1,5.117,1.766A6.67,6.67,0,0,1,79-55.767H67v.613a8.073,8.073,0,0,0,1.567,5.243A5.449,5.449,0,0,0,73.051-47.984ZM71.285-61.316a3.61,3.61,0,0,0-2.648,1.1A5.7,5.7,0,0,0,67.177-57.1H74.42a5.075,5.075,0,0,0-.847-3.045A2.679,2.679,0,0,0,71.285-61.316Zm39.167,14.377,2.594,2.162h-9.44l2.594-2.162V-56.2a4.36,4.36,0,0,0-.685-2.829,2.794,2.794,0,0,0-2.2-.775,6.929,6.929,0,0,0-4.108,1.585v11.278l2.594,2.162H92.364l2.594-2.162V-56.2a4.36,4.36,0,0,0-.685-2.829,2.794,2.794,0,0,0-2.2-.775,6.929,6.929,0,0,0-4.108,1.585v11.278l2.594,2.162H81.122l2.594-2.162V-58L81.41-59.947l6.558-2.883-.54,3.171.18.18a9.018,9.018,0,0,1,6.81-3.279q3.675,0,4.54,3.135a9.08,9.08,0,0,1,6.7-3.135q4.792,0,4.792,5.153Zm22.772-.973.18.18q-1.153,3.315-4.036,3.315a3.417,3.417,0,0,1-3.6-2.63h-.18a6.17,6.17,0,0,1-5.225,2.63,5.335,5.335,0,0,1-3.585-1.153,3.947,3.947,0,0,1-1.351-3.171,4.589,4.589,0,0,1,2.558-4.288h7.423v-2.7a4.179,4.179,0,0,0-.883-2.991,3.714,3.714,0,0,0-2.756-.9,9.638,9.638,0,0,0-5.369,1.8l-.18-.18a9.015,9.015,0,0,1,3.333-3.531,8.725,8.725,0,0,1,4.522-1.225,5.557,5.557,0,0,1,4.108,1.441,5.557,5.557,0,0,1,1.441,4.108v8.071q0,1.982,1.621,1.982A3.426,3.426,0,0,0,133.225-47.912Zm-11.278,1.081a5.209,5.209,0,0,0,3.459-1.694V-51.7h-5.045a3.457,3.457,0,0,0-.829,2.378,2.388,2.388,0,0,0,.685,1.874A2.5,2.5,0,0,0,121.947-46.831Zm24.574-11.1a6.606,6.606,0,0,0-3.063-.324,3.785,3.785,0,0,0-2.234,1.081v10.053l3.964,2.342h-10.81l2.594-2.162V-58l-2.306-1.946,6.558-2.883-.757,4.576.18.072a7.75,7.75,0,0,1,2.973-3.549,5.624,5.624,0,0,1,4.45-.667Z" transform="translate(703.413 1294)"/><rect class="b" width="144.203" height="7.433" transform="translate(707.091 1258.364)"/><path class="c" d="M7.331-9.864A5.329,5.329,0,0,1,11.24-8.392a5.179,5.179,0,0,1,1.5,3.876A5.124,5.124,0,0,1,11.2-.64,5.6,5.6,0,0,1,7.169.833H4.083V5.759H.813V-9.864ZM4.083-1.722H6.454a3.089,3.089,0,0,0,2.187-.725A2.672,2.672,0,0,0,9.421-4.5a2.672,2.672,0,0,0-.78-2.057,3.077,3.077,0,0,0-2.176-.715H4.083ZM18.245,3.594a2.827,2.827,0,0,0,1.862-.617,1.968,1.968,0,0,0,.769-1.592V.508l-2.5.173Q16.35.811,16.35,2.165A1.217,1.217,0,0,0,16.87,3.2,2.207,2.207,0,0,0,18.245,3.594ZM17.217,5.9a4.2,4.2,0,0,1-2.869-.985A3.286,3.286,0,0,1,13.2,2.327,3.005,3.005,0,0,1,14.412-.206,6.4,6.4,0,0,1,17.9-1.246l2.977-.184v-.79a1.632,1.632,0,0,0-.552-1.321A2.352,2.352,0,0,0,18.787-4a2.371,2.371,0,0,0-1.418.411,1.612,1.612,0,0,0-.682,1.061H13.8A3.491,3.491,0,0,1,15.268-5.3a5.887,5.887,0,0,1,3.649-1.072A5.816,5.816,0,0,1,22.6-5.284a3.461,3.461,0,0,1,1.386,2.869V5.759H20.93V3.919h-.065A3.442,3.442,0,0,1,19.371,5.38,4.547,4.547,0,0,1,17.217,5.9Zm10.362,4.212a9.487,9.487,0,0,1-1.2-.043V7.622a4.734,4.734,0,0,0,.715.032q1.754,0,2.111-1.364l.108-.455-4.179-12H28.6l2.577,9.355h.065l2.588-9.355H37.16L33.035,6a6.378,6.378,0,0,1-1.992,3.194A5.67,5.67,0,0,1,27.578,10.112ZM38.351-6.161H41.4V-4h.065a3.355,3.355,0,0,1,1.3-1.711,3.606,3.606,0,0,1,2.1-.628,3.574,3.574,0,0,1,2.155.628A3.139,3.139,0,0,1,48.193-3.9h.065a3.5,3.5,0,0,1,1.408-1.776,4.058,4.058,0,0,1,2.3-.66A3.815,3.815,0,0,1,54.8-5.241a3.99,3.99,0,0,1,1.072,2.9v8.1H52.708V-1.549q0-2.165-1.992-2.165a1.943,1.943,0,0,0-1.5.628,2.3,2.3,0,0,0-.574,1.635V5.759H45.584V-1.668a2.107,2.107,0,0,0-.52-1.5,1.9,1.9,0,0,0-1.44-.541,1.978,1.978,0,0,0-1.527.65,2.358,2.358,0,0,0-.585,1.657V5.759H38.351ZM63.275-4.007a2.473,2.473,0,0,0-1.808.715,2.837,2.837,0,0,0-.8,1.862h5.143A2.7,2.7,0,0,0,65.073-3.3,2.412,2.412,0,0,0,63.275-4.007Zm5.489,6.128A4.028,4.028,0,0,1,67.022,4.9a6.127,6.127,0,0,1-3.66,1.061A5.664,5.664,0,0,1,59.074,4.33,6.228,6.228,0,0,1,57.515-.152a6.413,6.413,0,0,1,1.548-4.526,5.412,5.412,0,0,1,4.179-1.689,5.365,5.365,0,0,1,4.093,1.6,6,6,0,0,1,1.527,4.32V.53H60.634V.725a2.893,2.893,0,0,0,.769,2.09,2.683,2.683,0,0,0,2.014.79,2.892,2.892,0,0,0,1.548-.4,1.925,1.925,0,0,0,.888-1.083Zm1.8-8.283h3.053v2.133h.065a3.842,3.842,0,0,1,3.833-2.306,4.126,4.126,0,0,1,3.118,1.18,4.544,4.544,0,0,1,1.126,3.27V5.759H78.6V-1.224a2.556,2.556,0,0,0-.606-1.83,2.275,2.275,0,0,0-1.732-.65,2.4,2.4,0,0,0-1.83.736,2.673,2.673,0,0,0-.7,1.927v6.8H70.562ZM87.853-8.814v2.653h2.209v2.393H87.853V2.024q0,1.364,1.418,1.364a4.9,4.9,0,0,0,.79-.054V5.673a7.871,7.871,0,0,1-1.527.13,4.556,4.556,0,0,1-2.956-.758,3.127,3.127,0,0,1-.888-2.5V-3.769H83.078V-6.161h1.613V-8.814ZM.813,31.1V15.477h3.27V31.1ZM6.454,19.18H9.508v2.133h.065a3.842,3.842,0,0,1,3.833-2.306,4.126,4.126,0,0,1,3.118,1.18,4.544,4.544,0,0,1,1.126,3.27V31.1H14.488V24.118a2.556,2.556,0,0,0-.606-1.83,2.275,2.275,0,0,0-1.732-.65,2.4,2.4,0,0,0-1.83.736,2.673,2.673,0,0,0-.7,1.927v6.8H6.454Zm14.129,2.393H18.971V19.18h1.613V18.119a3.1,3.1,0,0,1,.888-2.479,4.6,4.6,0,0,1,2.967-.758,9.888,9.888,0,0,1,1.462.108v2.2a4.662,4.662,0,0,0-.866-.076,1.524,1.524,0,0,0-1.029.282,1.2,1.2,0,0,0-.325.909v.877h2.23v2.393H23.745V31.1H20.584Zm7.1-2.393H30.74v2.133H30.8a2.726,2.726,0,0,1,2.837-2.274,2.84,2.84,0,0,1,.888.119v2.8a2.752,2.752,0,0,0-1.137-.195,2.465,2.465,0,0,0-1.873.7,2.724,2.724,0,0,0-.671,1.96V31.1H27.686ZM40.3,28.936a2.827,2.827,0,0,0,1.862-.617,1.968,1.968,0,0,0,.769-1.592V25.85l-2.5.173q-2.025.13-2.025,1.483a1.217,1.217,0,0,0,.52,1.039A2.207,2.207,0,0,0,40.3,28.936Zm-1.029,2.306a4.2,4.2,0,0,1-2.869-.985,3.286,3.286,0,0,1-1.148-2.588,3.005,3.005,0,0,1,1.213-2.534A6.4,6.4,0,0,1,39.954,24.1l2.977-.184v-.79a1.632,1.632,0,0,0-.552-1.321,2.739,2.739,0,0,0-2.956-.043,1.612,1.612,0,0,0-.682,1.061H35.85a3.491,3.491,0,0,1,1.472-2.772,5.887,5.887,0,0,1,3.649-1.072,5.816,5.816,0,0,1,3.681,1.083,3.461,3.461,0,0,1,1.386,2.869V31.1H42.985V29.26H42.92a3.442,3.442,0,0,1-1.494,1.462A4.547,4.547,0,0,1,39.272,31.242Zm8.683-8.553a3.2,3.2,0,0,1,1.364-2.7,5.923,5.923,0,0,1,3.627-1.018,5.692,5.692,0,0,1,3.562,1.039,3.356,3.356,0,0,1,1.386,2.739H54.971a1.5,1.5,0,0,0-.606-1.126,2.388,2.388,0,0,0-1.462-.411,2.441,2.441,0,0,0-1.375.346,1.086,1.086,0,0,0-.52.931q0,.877,1.592,1.245l2.241.487a5.421,5.421,0,0,1,2.566,1.159,2.743,2.743,0,0,1,.78,2.079,3.3,3.3,0,0,1-1.451,2.793,6.334,6.334,0,0,1-3.8,1.05,6.2,6.2,0,0,1-3.757-1.05A3.56,3.56,0,0,1,47.663,27.5h3.086q.238,1.57,2.274,1.57a2.734,2.734,0,0,0,1.483-.346,1.035,1.035,0,0,0,.541-.92.9.9,0,0,0-.336-.736,3.144,3.144,0,0,0-1.159-.466l-2.2-.5Q47.955,25.33,47.955,22.688Zm15.883-6.161V19.18h2.209v2.393H63.838v5.793q0,1.364,1.418,1.364a4.9,4.9,0,0,0,.79-.054v2.339a7.871,7.871,0,0,1-1.527.13,4.556,4.556,0,0,1-2.956-.758,3.127,3.127,0,0,1-.888-2.5V21.573H59.064V19.18h1.613V16.528Zm4.017,2.653h3.053v2.133h.065A2.726,2.726,0,0,1,73.81,19.04a2.84,2.84,0,0,1,.888.119v2.8a2.752,2.752,0,0,0-1.137-.195,2.465,2.465,0,0,0-1.873.7,2.724,2.724,0,0,0-.671,1.96V31.1H67.855ZM87.214,31.1H84.161V28.946H84.1a3.652,3.652,0,0,1-3.746,2.328,4.186,4.186,0,0,1-3.129-1.191,4.4,4.4,0,0,1-1.2-3.259V19.18H79.18v6.984A2.514,2.514,0,0,0,79.819,28a2.3,2.3,0,0,0,1.732.639,2.369,2.369,0,0,0,1.808-.736,2.713,2.713,0,0,0,.693-1.938V19.18h3.162Zm9.972-7.525a2.391,2.391,0,0,0-.758-1.516,2.356,2.356,0,0,0-1.657-.6,2.278,2.278,0,0,0-1.938.974,4.51,4.51,0,0,0-.715,2.7,4.5,4.5,0,0,0,.715,2.707,2.3,2.3,0,0,0,1.949.964A2.188,2.188,0,0,0,97.2,26.77h2.945a4.522,4.522,0,0,1-1.592,3.3,5.689,5.689,0,0,1-3.8,1.234,5.6,5.6,0,0,1-4.255-1.646,6.309,6.309,0,0,1-1.581-4.526,6.263,6.263,0,0,1,1.581-4.493,6.248,6.248,0,0,1,8.077-.357,4.557,4.557,0,0,1,1.559,3.291Zm8.543-7.048V19.18h2.209v2.393h-2.209v5.793q0,1.364,1.418,1.364a4.9,4.9,0,0,0,.79-.054v2.339a7.871,7.871,0,0,1-1.527.13,4.556,4.556,0,0,1-2.956-.758,3.127,3.127,0,0,1-.888-2.5V21.573h-1.613V19.18h1.613V16.528ZM120.887,31.1h-3.053V28.946h-.065a3.652,3.652,0,0,1-3.746,2.328,4.186,4.186,0,0,1-3.129-1.191,4.4,4.4,0,0,1-1.2-3.259V19.18h3.162v6.984A2.514,2.514,0,0,0,113.492,28a2.3,2.3,0,0,0,1.732.639,2.369,2.369,0,0,0,1.808-.736,2.713,2.713,0,0,0,.693-1.938V19.18h3.162ZM123.03,19.18h3.053v2.133h.065a2.726,2.726,0,0,1,2.837-2.274,2.84,2.84,0,0,1,.888.119v2.8a2.752,2.752,0,0,0-1.137-.195,2.465,2.465,0,0,0-1.873.7,2.724,2.724,0,0,0-.671,1.96V31.1H123.03Zm13.155,2.155a2.473,2.473,0,0,0-1.808.715,2.837,2.837,0,0,0-.8,1.862h5.143a2.7,2.7,0,0,0-.736-1.873A2.411,2.411,0,0,0,136.185,21.335Zm5.489,6.128a4.028,4.028,0,0,1-1.743,2.783,6.127,6.127,0,0,1-3.66,1.061,5.664,5.664,0,0,1-4.288-1.635,6.228,6.228,0,0,1-1.559-4.482,6.413,6.413,0,0,1,1.548-4.526,6.021,6.021,0,0,1,8.272-.087,6,6,0,0,1,1.527,4.32v.974h-8.229v.195a2.893,2.893,0,0,0,.769,2.09,2.683,2.683,0,0,0,2.014.79,2.891,2.891,0,0,0,1.548-.4,1.925,1.925,0,0,0,.888-1.083Z" transform="translate(896.289 1234.238)"/></g></svg>