<svg xmlns="http://www.w3.org/2000/svg" width="119" height="119" viewBox="0 0 119 119"><defs><style>.a{fill:#fff;}.b{fill:#35bdb2;}.b,.c,.d,.e,.f,.g,.h,.i{fill-rule:evenodd;}.c{fill:#ed1749;}.d{fill:#a0ce63;}.e{fill:#ad208e;}.f{fill:#f78f1e;}.g{fill:#00a4e4;}.h{fill:#fd0;}.i{fill:#231e20;}</style></defs><g transform="translate(-252 -3380)"><rect class="a" width="119" height="119" transform="translate(252 3380)"/><g transform="translate(258.108 3429.432)"><g transform="translate(0 0)"><path class="b" d="M1118.069,13.776a19.8,19.8,0,0,1,0-3.961c.635-2.481,4.761-1.13,2.932,2.127-.792,1.408-1.744,1.4-2.445,1.734a6.578,6.578,0,0,0,3.157-1.023,7.885,7.885,0,0,0,2.112-2.112,6.914,6.914,0,0,0-4.255-10.4,8.084,8.084,0,0,0-1.12-.141h-7.283a5.888,5.888,0,0,0,.487,2.63c.832,2.065,3.228,4.107,5.244,4.107v.2a6.351,6.351,0,0,0-3.343,1.483,6.871,6.871,0,0,0-1.988,2.838c-.529,1.324-.4,2.62-.4,4.426v4.927c3.4-.283,5.875-2.172,6.678-5.287.141-.548.118-1.146.22-1.551Z" transform="translate(-1097.492 0.01)"/><path class="c" d="M4673.633.856c-.259.495-.29,1.2-.525,1.744a6.854,6.854,0,0,1-8.267,3.982c-.323-.1-1.4-.575-1.487-.579-.23-.011-4.086,2.273-6.221-.561a3.461,3.461,0,0,1-.335-3.461,3.2,3.2,0,0,1,.922-1.191,5.109,5.109,0,0,1,1.251-.694l.153-.089c-4.439.281-7.827,5.922-5.186,10.239a6.4,6.4,0,0,0,1.559,1.86c4.091,3.292,7.346.578,8.092.846a7,7,0,0,0,2.306.723,6.864,6.864,0,0,0,6.8-3.343c1.528-2.884.939-5.639.939-9.474Z" transform="translate(-4595.801 0.004)"/><path class="d" d="M2299.813,6.938a8.762,8.762,0,0,1-3.249-.475,3.463,3.463,0,0,1-1.257-4.935c.777-1.17,1.555-1.177,2.132-1.528a6.943,6.943,0,0,0-5.192,3.3,6.938,6.938,0,0,0,.408,7.678c2.823,3.592,6.532,2.719,11.482,2.8.721.012.945.155.914-.6a7.228,7.228,0,0,0-1.721-4.033,6.438,6.438,0,0,0-3.255-2.074l-.265-.138Z" transform="translate(-2263.108 0.01)"/><path class="e" d="M3476.877,7.944c0-1.906.335-3.92,2.732-4.426a3.338,3.338,0,0,1,3.58,1.531,7.807,7.807,0,0,1,.528,1.3A6.792,6.792,0,0,0,3477.624,0h-1.535a6.982,6.982,0,0,0-2.264.671,6.9,6.9,0,0,0-2.321,1.9,6.558,6.558,0,0,0-1.357,2.866c-.325,1.536-.107,6.356-.107,8.34,1.256-.292,2.837-.126,4.553-1.783a7.112,7.112,0,0,0,2.285-4.049Z" transform="translate(-3427.305 0.009)"/><path class="f" d="M6395.489,6.277c.187-.339.307-.927.546-1.308a3.5,3.5,0,0,1,3.851-1.43c2.335.654,2.541,2.863,2.541,4.907l.218.487a4.541,4.541,0,0,0,.646,1.465,6.729,6.729,0,0,0,5.371,3.294c.782.072.6.28.6-2.029,0-2.928.289-5.768-.8-7.945A6.859,6.859,0,0,0,6403.23,0h-1.644a7.133,7.133,0,0,0-.748.124c-2.879.622-5.352,3.43-5.352,6.154Z" transform="translate(-6316.85 0.01)"/><path class="g" d="M11.72,171.746c.667,1.727.282,2.644-.962,3.52a6.923,6.923,0,0,1-7.847,0c-1.233-.866-1.62-1.811-.967-3.516C1.06,172.216.307,174.089.1,175.07a6.289,6.289,0,0,0-.1.7V177.1a6.808,6.808,0,0,0,.636,2.36,7.127,7.127,0,0,0,2.38,2.75,7.3,7.3,0,0,0,3.9,1.173,6.9,6.9,0,0,0,5.99-10.158,3.846,3.846,0,0,0-1.182-1.475Z" transform="translate(0.005 -169.624)"/><path class="h" d="M7578.476,71.2a8.343,8.343,0,0,0-3.295,1.632,6.8,6.8,0,0,0-2.021,2.906l-.421,2.012c.017.612.661.387,2.116.387,3.01,0,6.2.437,8.63-1.225A6.723,6.723,0,0,0,7585.8,74.3c.706-1.481.723-2.093.723-4.2V65.166a13.175,13.175,0,0,0-.378,1.432,7.219,7.219,0,0,1-2.15,3.081C7582.231,71.014,7581.158,71.2,7578.476,71.2Z" transform="translate(-7479.627 -64.355)"/><path class="i" d="M4953,.853V0a5.765,5.765,0,0,0-2.575.443c-1.944.779-4.163,3.105-4.163,5.088l-.1-5.531a6.727,6.727,0,0,0-5.9,3.249,5.166,5.166,0,0,0-.835,2.28l-.1-5.529h-.83l-.152.089a5.1,5.1,0,0,0-1.249.694,3.2,3.2,0,0,0-.922,1.191,3.464,3.464,0,0,0,.335,3.461c2.134,2.836,5.989.551,6.22.562.089,0,1.165.484,1.487.579a6.853,6.853,0,0,0,8.263-3.984c.235-.537.268-1.246.525-1.744Z" transform="translate(-4875.165 0.008)"/><path class="i" d="M7578.9,6.843c2.678,0,3.733-.188,5.518-1.522a7.207,7.207,0,0,0,2.15-3.081,13.184,13.184,0,0,1,.377-1.433v-.8a6.805,6.805,0,0,0-6.635,4.928c-.044.17-.037.181-.082.32-.145.441.106-.261-.055.146-.009.019-.026.054-.033.067a.447.447,0,0,1-.033.067V.005h-6.937a6.969,6.969,0,0,0,5.116,6.648c.124.035.183.043.319.083l.152.048c.021.007.056.022.072.028a.342.342,0,0,1,.067.029Z" transform="translate(-7480.052 0.004)"/><path class="i" d="M6395.488,280.47a6.859,6.859,0,0,0,.923,4.061,6.957,6.957,0,0,0,4.183,3.158,4.538,4.538,0,0,0,1.031.183c.647.047.751.253.808-.292.135-1.274-.006-3.554-.007-4.941,0-2.043-.2-4.252-2.541-4.906a3.5,3.5,0,0,0-3.851,1.43C6395.823,279.543,6395.689,280.13,6395.488,280.47Z" transform="translate(-6316.854 -274.183)"/><path class="i" d="M2577.833,6.944c.907,0,4.3.134,4.928,0,.936-.194-.443-3.257-.685-3.642a6.624,6.624,0,0,0-2.49-2.436,6.565,6.565,0,0,0-1.8-.718A4.913,4.913,0,0,0,2576.706,0h-1.243c-.58.351-1.354.359-2.136,1.528a3.464,3.464,0,0,0,1.258,4.935,8.707,8.707,0,0,0,3.249.475Z" transform="translate(-2541.13 0.004)"/><path class="i" d="M4031.938,284.341l.084.217a6.623,6.623,0,0,0,.55,1.662c1.551,3.341,5.644,4.176,6.17,3.89.331-.178.134-1.893.134-2.352a29.438,29.438,0,0,0-.1-5.008,7.746,7.746,0,0,0-.526-1.3,3.34,3.34,0,0,0-3.581-1.531c-2.4.5-2.731,2.518-2.731,4.426Z" transform="translate(-3982.363 -276.388)"/><path class="i" d="M133.481,2.112c-.653,1.707-.268,2.65.967,3.516a6.923,6.923,0,0,0,7.847,0c1.244-.877,1.63-1.794.962-3.52-.235-.575-1.475-1.265-1.969-1.51a6.242,6.242,0,0,0-2.357-.6h-.96a7.4,7.4,0,0,0-2.516.6,6.43,6.43,0,0,0-1.789,1.229c-.168.2-.1.067-.182.279Z" transform="translate(-131.531 0.009)"/><path class="i" d="M1665.249,699.451a1.153,1.153,0,0,1,.486-.1c.7-.336,1.652-.325,2.444-1.734,1.83-3.256-2.3-4.607-2.933-2.127a19.8,19.8,0,0,0,0,3.961Z" transform="translate(-1644.672 -685.668)"/></g></g></g></svg>